<svg id="visual" viewBox="0 0 1440 700" width="1440" height="700" xmlns="http://www.w3.org/2000/svg" xmlns:xlink="http://www.w3.org/1999/xlink" version="1.1"><rect x="0" y="0" width="1440" height="700" fill="#1B1B1B"></rect><defs><linearGradient id="grad1_0" x1="51.4%" y1="0%" x2="100%" y2="100%"><stop offset="8.857142857142861%" stop-color="#1b1b1b" stop-opacity="1"></stop><stop offset="91.14285714285714%" stop-color="#1b1b1b" stop-opacity="1"></stop></linearGradient></defs><defs><linearGradient id="grad2_0" x1="0%" y1="0%" x2="48.6%" y2="100%"><stop offset="8.857142857142861%" stop-color="#1b1b1b" stop-opacity="1"></stop><stop offset="91.14285714285714%" stop-color="#1b1b1b" stop-opacity="1"></stop></linearGradient></defs><g transform="translate(1440, 0)"><path d="M0 579C-49.4 577.3 -98.8 575.5 -152.7 569.9C-206.6 564.2 -264.9 554.7 -297.5 515.3C-330.1 475.9 -336.8 406.7 -362 362C-387.3 317.4 -430.9 297.2 -456.4 263.5C-481.9 229.8 -489.1 182.6 -509 136.4C-528.9 90.2 -561.5 45.1 -594 0L0 0Z" fill="#295A46"></path></g><g transform="translate(0, 700)"><path d="M0 -595C52 -587.4 103.9 -579.8 150.6 -562.2C197.3 -544.5 238.8 -516.7 284.5 -492.8C330.2 -468.8 380 -448.7 413 -413C445.9 -377.2 461.8 -325.7 484.1 -279.5C506.4 -233.3 535.1 -192.4 547.7 -146.8C560.2 -101.1 556.6 -50.5 553 0L0 0Z" fill="#295A46"></path></g></svg>